<svg xmlns="http://www.w3.org/2000/svg" viewBox="0 0 290.1 330.99"><defs><style>.cls-1{fill:#fff;}.cls-2{fill:#293549;}.cls-3{fill:#3bab5e;}.cls-4{fill:#f7f8f9;}.cls-5{fill:#424143;opacity:0.4;}.cls-5,.cls-6{isolation:isolate;}.cls-6{fill:#221f1f;opacity:0.1;}</style></defs><title>Recurso 1</title><g id="Capa_2" data-name="Capa 2"><g id="Página_inicial_Movil" data-name="Página inicial Movil"><path class="cls-1" d="M0,88.92A14,14,0,0,1,6.29,78L138.76,1.49a14,14,0,0,1,12.58,0L283.8,78a14,14,0,0,1,6.29,10.93v153a14,14,0,0,1-6.29,10.93l-132.46,76.5a14,14,0,0,1-12.58,0L6.29,252.84A14,14,0,0,1,0,241.91Z"/><path class="cls-2" d="M69.21,55.47a8.9,8.9,0,0,1,8.94-8.94H212.27a8.9,8.9,0,0,1,8.94,8.94V275.52a8.9,8.9,0,0,1-8.94,8.94H78.15a8.9,8.9,0,0,1-8.94-8.94Z"/><rect class="cls-3" x="78.15" y="77.66" width="134.12" height="168.06"/><path class="cls-4" d="M150.68,61.1H139.58a.44.44,0,0,1-.5-.5.53.53,0,0,1,.5-.5h11.09a.5.5,0,1,1,0,1Z"/><path class="cls-4" d="M154.32,63.58H136.11a.53.53,0,0,1-.5-.5.44.44,0,0,1,.5-.5h18.21a.53.53,0,0,1,.5.5A.44.44,0,0,1,154.32,63.58Z"/><path class="cls-4" d="M150.68,65.9H139.58a.5.5,0,1,1,0-1h11.09a.5.5,0,1,1,0,1Z"/><path class="cls-4" d="M145.21,276.35a9.65,9.65,0,0,1-9.6-9.77,9.51,9.51,0,0,1,9.6-9.6,9.61,9.61,0,0,1,9.6,9.6A9.75,9.75,0,0,1,145.21,276.35Zm0-18.54a8.78,8.78,0,1,0,8.78,8.78A8.83,8.83,0,0,0,145.21,257.81Z"/><rect class="cls-4" x="89.25" y="86.6" width="111.77" height="31.63"/><rect class="cls-5" x="128.49" y="128.66" width="72.69" height="31.63"/><rect class="cls-5" x="89.25" y="128.32" width="31.96" height="31.96"/><rect class="cls-5" x="128.49" y="168.06" width="72.69" height="31.63"/><rect class="cls-5" x="89.25" y="167.73" width="31.96" height="31.96"/><rect class="cls-5" x="128.49" y="207.31" width="72.69" height="31.63"/><rect class="cls-5" x="89.25" y="207.14" width="31.96" height="31.96"/><path class="cls-6" d="M283.8,78,151.17,1.49a11.8,11.8,0,0,0-6-1.49V331a11.8,11.8,0,0,0,6-1.49L283.64,253a14,14,0,0,0,6.29-10.93V88.92A13.39,13.39,0,0,0,283.8,78Z"/></g></g></svg>