<svg xmlns="http://www.w3.org/2000/svg" viewBox="0 0 62.2 62.2"><defs><style>.cls-1{fill:#00b0b0;}.cls-2{fill:#fff;}</style></defs><title>Recurso 11</title><g id="Capa_2" data-name="Capa 2"><g id="Página_inicial_Movil" data-name="Página inicial Movil"><circle class="cls-1" cx="31.1" cy="31.1" r="31.1"/><path class="cls-2" d="M9.91,31.18v-3.3a.5.5,0,0,1,0-.4l.2-.2,2.8-.4a10.3,10.3,0,0,1,.6-1.4l-1.6-2.1a.7.7,0,0,1-.1-.4.5.5,0,0,1,.1-.4l1.5-1.6a3.6,3.6,0,0,1,1.4-1.1h.4l2.1,1.6,1.4-.6q.12-1.51.4-3a.9.9,0,0,1,.5-.7H23a1.4,1.4,0,0,1,.4.4.9.9,0,0,1,.2.5l.4,2.8,1.4.6,2.1-1.6h.7c1.7,1.6,2.6,2.5,2.6,2.9a.7.7,0,0,1-.1.4l-.8,1-.8,1.1.6,1.5,2.7.4.4.2a.8.8,0,0,1,.2.4v3.3a.9.9,0,0,1-.2.4l-.4.2-2.8.4a9.31,9.31,0,0,1-.6,1.4l1.6,2.1a.6.6,0,0,1,.1.4.5.5,0,0,1-.1.4L29.11,38a3.6,3.6,0,0,1-1.4,1.1h-.4l-2.1-1.6-1.4.6c-.1,1.3-.3,2.4-.4,3a.8.8,0,0,1-.5.6h-3.3a1.1,1.1,0,0,1-.4-.4.8.8,0,0,1-.2-.4l-.4-2.8-1.4-.6-2.1,1.6h-.7c-1.7-1.6-2.6-2.5-2.6-2.9a.7.7,0,0,1,.1-.4l.7-.9.8-1.1a9.1,9.1,0,0,1-.6-1.5l-2.7-.4-.2-.2A1,1,0,0,1,9.91,31.18Zm22.9-9c-1.8-.2-2.9-.4-2.9-.6v-2.5c0-.2,1.1-.4,2.9-.6a5.9,5.9,0,0,1,.7-.9,8.4,8.4,0,0,1-.9-2.5h.1l.6-.4,1.1-.6.5-.3a2.6,2.6,0,0,1,.8.8l.9,1.2h1.1a18.59,18.59,0,0,1,1.7-2h.1l2.2,1.2h.1a9.6,9.6,0,0,1-.9,2.5,4.3,4.3,0,0,1,.4.9c1.8.2,2.5.4,2.5.6v2.5c0,.2-.7.4-2.5.6a5.1,5.1,0,0,1-.5.9,10.5,10.5,0,0,1,1,2.5h-.1l-2.2,1.3a2.6,2.6,0,0,1-.8-.8l-.9-1.2h-1.1l-.9,1.2a2.6,2.6,0,0,1-.8.8l-2.2-1.3h-.1a7.5,7.5,0,0,1,.8-2.5l-.6-.9h0Zm0,18.4c-1.8-.2-2.9-.4-2.9-.6v-2.5c0-.2,1.1-.4,2.9-.6a5.9,5.9,0,0,1,.7-.9,8.4,8.4,0,0,1-.9-2.5h.1l.6-.4,1.1-.6.5-.3a2.6,2.6,0,0,1,.8.8l.9,1.2h1.1a18.59,18.59,0,0,1,1.7-2h.1l2.2,1.2h.1a9.6,9.6,0,0,1-.9,2.5,4.3,4.3,0,0,1,.4.9c1.8.2,2.5.4,2.5.6v2.5c0,.2-.7.4-2.5.6a5.1,5.1,0,0,1-.5.9,10.5,10.5,0,0,1,1,2.5h-.1l-2.2,1.3a2.6,2.6,0,0,1-.8-.8l-.9-1.2h-1.1l-.9,1.2a2.6,2.6,0,0,1-.8.8l-2.2-1.3h-.1a7.5,7.5,0,0,1,.8-2.5l-.6-.9h0ZM35,20.38a2.3,2.3,0,1,0,.7-1.6,2.2,2.2,0,0,0-.7,1.5ZM17.18,29.58a4.07,4.07,0,1,0,1.24-2.83,3.9,3.9,0,0,0-1.24,2.66ZM35,38.77a2.3,2.3,0,1,0,.7-1.6,2.2,2.2,0,0,0-.7,1.5Z"/></g></g></svg>