<svg xmlns="http://www.w3.org/2000/svg" viewBox="0 0 62.8 62.8"><defs><style>.cls-1{fill:#00b0b0;}.cls-2{fill:#fff;}</style></defs><title>servicio-2</title><g id="Capa_2" data-name="Capa 2"><g id="Página_inicial_Movil" data-name="Página inicial Movil"><circle class="cls-1" cx="31.4" cy="31.4" r="31.4"/><path class="cls-2" d="M26.5,32.8V28a.8.8,0,0,1,.2-.6l.6-.2h.3V25.6a3.8,3.8,0,0,1,7.6,0v1.6h.3l.6.2a.8.8,0,0,1,.2.6v4.9a.8.8,0,0,1-.2.6l-.6.2H27.4l-.6-.2A.7.7,0,0,1,26.5,32.8Zm2.7-5.7h4.3V25.5a2.1,2.1,0,0,0-.6-1.5,2,2,0,0,0-1.5-.6,2.1,2.1,0,0,0-1.5.6,2,2,0,0,0-.6,1.5v1.6h-.1Z"/><path class="cls-2" d="M13.3,40.3V19.8a3,3,0,0,1,.9-2.1,2.9,2.9,0,0,1,2.1-.9H46.4a3,3,0,0,1,2.1.9,2.9,2.9,0,0,1,.9,2.1V40.3a3,3,0,0,1-.9,2.1,2.9,2.9,0,0,1-2.1.9H36.2a4,4,0,0,0,.3,1.4l.6,1.3a2.3,2.3,0,0,1,.3.8A1.2,1.2,0,0,1,36.2,48H26.5a1.2,1.2,0,0,1-1.2-1.2,2.2,2.2,0,0,1,.3-.8l.6-1.3a4.1,4.1,0,0,0,.3-1.5H16.3a3,3,0,0,1-2.1-.9A2.9,2.9,0,0,1,13.3,40.3Zm2.4-4.8a.6.6,0,0,0,.2.4l.4.2H46.4l.4-.2a.6.6,0,0,0,.2-.4V19.9a.6.6,0,0,0-.2-.4l-.4-.2H16.3l-.4.2a.6.6,0,0,0-.2.4V35.5Z"/></g></g></svg>