<svg xmlns="http://www.w3.org/2000/svg" viewBox="0 0 62.8 62.8"><defs><style>.cls-1{fill:#00b0b0;}.cls-2{fill:#fff;}</style></defs><title>servicio-3</title><g id="Capa_2" data-name="Capa 2"><g id="Página_inicial_Movil" data-name="Página inicial Movil"><circle class="cls-1" cx="31.4" cy="31.4" r="31.4"/><path class="cls-2" d="M26.5,36.6V31.7a.8.8,0,0,1,.2-.6l.6-.2h.3V29.3a3.8,3.8,0,0,1,7.6,0v1.6h.3l.6.2a.8.8,0,0,1,.2.6v4.9a.8.8,0,0,1-.2.6l-.6.2H27.3l-.6-.2A.7.7,0,0,1,26.5,36.6Zm2.7-5.7h4.3V29.3a2.1,2.1,0,0,0-.6-1.5,2,2,0,0,0-1.5-.6,2.1,2.1,0,0,0-1.5.6,2,2,0,0,0-.6,1.5v1.6h-.1Z"/><path class="cls-2" d="M12.1,39.5a20.4,20.4,0,0,1-1.7-8.2,21.1,21.1,0,0,1,1.7-8.2,22.2,22.2,0,0,1,4.5-6.7,20.6,20.6,0,0,1,6.7-4.5,20.4,20.4,0,0,1,8.2-1.7,21.1,21.1,0,0,1,8.2,1.7,22.2,22.2,0,0,1,6.7,4.5,21.38,21.38,0,0,1,6.2,14.9,21.1,21.1,0,0,1-1.7,8.2,22.2,22.2,0,0,1-4.5,6.7,21.4,21.4,0,0,1-14.9,6.1,21.1,21.1,0,0,1-8.2-1.7,22.2,22.2,0,0,1-6.7-4.5A21.4,21.4,0,0,1,12.1,39.5Zm3.5-16.7a18.1,18.1,0,0,0,0,17l4.5-4.5a12.3,12.3,0,0,1-.7-3.9,12.1,12.1,0,0,1,.7-3.9l-4.5-4.6h0Zm9.6,2.1a9,9,0,1,0,6.4-2.7,8.7,8.7,0,0,0-6.4,2.7Zm-2.1-9.6,4.5,4.5a12.3,12.3,0,0,1,3.9-.7,12.1,12.1,0,0,1,3.9.7L40,15.3a18.1,18.1,0,0,0-17,.1Zm0,31.9a18.1,18.1,0,0,0,17,0l-4.5-4.5a12.3,12.3,0,0,1-3.9.7,12.1,12.1,0,0,1-3.9-.7ZM43,35.2l4.5,4.5a18.1,18.1,0,0,0,0-17L43,27.2a12.1,12.1,0,0,1-.1,8Z"/></g></g></svg>